<svg width="218" height="54" viewBox="0 0 218 54" fill="none" xmlns="http://www.w3.org/2000/svg">
<path d="M12.016 33V13.008H18.68V20.848L27.024 13.008H35.9L26.856 20.876L36.6 33H27.696L21.508 25.02L18.68 27.372V33H12.016ZM46.0019 17.488V21.856H52.4139C54.0659 21.856 54.9059 21.016 54.9059 19.644C54.9059 18.328 54.0659 17.488 52.4139 17.488H46.0019ZM39.3379 33V13.008H55.3539C60.2819 13.008 62.0459 15.248 62.0459 18.58C62.0459 21.268 60.6459 22.696 58.8539 23.144V23.2C60.1139 23.62 61.0659 24.628 61.2619 26.784C61.5699 30.704 61.6819 32.02 62.5219 33H55.2139C54.8499 32.132 54.8219 30.956 54.8219 30.032C54.8219 26.896 53.7859 26.336 52.1059 26.336H46.0019V33H39.3379ZM63.8597 33L72.5397 13.008H80.6877L89.2838 33H82.1437L80.9397 29.752H72.2037L70.9997 33H63.8597ZM79.3717 25.608L76.5997 18.048H76.5437L73.7717 25.608H79.3717ZM91.9035 33V13.008H110.971V17.488H98.5675V20.932H110.103V25.244H98.5675V33H91.9035ZM112.533 17.488V13.008H133.869V17.488H126.533V33H119.869V17.488H112.533ZM132.919 33L141.599 13.008H149.747L158.343 33H151.203L149.999 29.752H141.263L140.059 33H132.919ZM148.431 25.608L145.659 18.048H145.603L142.831 25.608H148.431ZM160.963 33V13.008H167.627V20.848L175.971 13.008H184.847L175.803 20.876L185.547 33H176.643L170.455 25.02L167.627 27.372V33H160.963ZM186.241 17.488V13.008H207.577V17.488H200.241V33H193.577V17.488H186.241Z" fill="#63FF51"/>
</svg>
